<svg xmlns="http://www.w3.org/2000/svg" viewBox="0 0 240 280"><rect width="240" height="280" fill="#ead8d5"/><circle cx="120" cy="110" r="90" fill="#fff" opacity=".15"/><path d="M56 118c0-60 126-75 128 0l-4 94H58z" fill="#322e2d"/><path d="M30 280v-35c0-49 53-65 90-65s90 16 90 65v35" fill="#f7f8f1"/><path d="M99 159v40l21 26 21-26v-40" fill="#b37d61"/><ellipse cx="120" cy="119" rx="47" ry="59" fill="#b37d61"/><path d="M71 110c-2-65 94-83 100-10-23-9-41-23-48-40-10 26-27 38-52 50" fill="#322e2d"/><path d="M94 120h10m33 0h10" stroke="#3d3430" stroke-width="4" stroke-linecap="round"/><path d="M113 140h12" stroke="#a16951" stroke-width="3" stroke-linecap="round"/><path d="M104 153q16 13 32 0" fill="none" stroke="#885745" stroke-width="3" stroke-linecap="round"/><path d="m98 194-16 29 28 4 10 35 10-35 28-4-16-29-22 30z" fill="#e0e9e3"/><path d="M81 226v26m-13-13h26" stroke="#83a498" stroke-width="5" stroke-linecap="round"/></svg>
